<?xml version="1.0" standalone="no"?>
<!DOCTYPE svg PUBLIC "-//W3C//DTD SVG 20010904//EN"
 "http://www.w3.org/TR/2001/REC-SVG-20010904/DTD/svg10.dtd">
<svg version="1.0" xmlns="http://www.w3.org/2000/svg"
 width="500.000000pt" height="500.000000pt" viewBox="0 0 500.000000 500.000000"
 preserveAspectRatio="xMidYMid meet">

<g transform="translate(0.000000,500.000000) scale(0.100000,-0.100000)"
fill="#000000" stroke="none">
<path d="M2480 4443 c-25 -15 -47 -30 -50 -34 -3 -4 -29 -21 -58 -38 -55 -32
-86 -37 -140 -22 -32 10 -41 4 -22 -15 7 -7 -2 -20 -28 -41 -24 -20 -53 -61
-80 -113 -42 -81 -42 -83 -41 -183 0 -56 7 -118 13 -139 9 -24 10 -52 5 -85
-12 -72 -11 -83 5 -77 17 7 31 37 18 42 -13 4 8 111 26 133 9 10 18 16 21 15
3 -2 12 2 19 10 8 9 9 14 2 14 -7 0 -9 8 -5 21 5 14 3 19 -3 15 -6 -3 -8 2 -5
13 2 10 1 34 -4 52 -10 39 -6 72 8 64 5 -4 9 -2 9 3 0 5 15 15 33 22 17 6 43
17 57 22 39 17 113 18 125 2 6 -7 33 -14 63 -15 47 -2 52 -5 47 -23 -3 -12 -2
-16 0 -10 3 6 17 9 31 6 22 -4 23 -6 7 -17 -9 -7 -22 -11 -28 -9 -6 3 -11 -5
-11 -16 0 -11 6 -20 13 -20 8 0 6 -7 -7 -20 -11 -11 -20 -31 -20 -44 0 -13 -5
-26 -12 -28 -8 -3 -8 -9 0 -24 6 -10 12 -15 12 -11 0 12 30 -19 30 -31 0 -6
-7 -13 -16 -16 -12 -5 -14 -13 -10 -32 6 -21 4 -25 -8 -21 -8 3 -17 1 -20 -6
-5 -9 -7 -9 -12 0 -3 7 -15 8 -32 4 -24 -7 -83 6 -98 22 -4 4 -22 7 -39 7 -17
0 -35 3 -38 7 -4 3 -18 7 -31 8 -17 0 -22 -4 -18 -17 2 -10 -1 -18 -7 -18 -7
0 -9 -5 -6 -11 4 -6 -1 -16 -11 -24 -11 -7 -16 -17 -11 -21 4 -4 7 -2 7 4 0 7
4 12 9 12 5 0 8 -11 5 -25 -5 -31 -1 -31 26 -3 17 19 22 20 30 8 5 -9 5 -19
-2 -27 -16 -20 -2 -45 22 -38 21 7 28 -10 8 -18 -9 -4 -8 -6 2 -6 9 -1 26 6
38 15 12 8 22 12 22 7 0 -4 5 -1 10 7 9 13 11 13 20 0 8 -13 10 -12 10 3 0 10
8 17 21 17 11 0 18 4 14 9 -3 5 -1 12 4 16 13 8 27 -21 35 -75 14 -92 14 -100
-6 -100 -10 0 -18 -5 -18 -10 0 -6 -13 -4 -30 5 -19 10 -30 11 -30 5 0 -6 -4
-8 -10 -5 -14 8 -13 5 8 -35 14 -30 22 -34 46 -32 22 3 27 0 23 -12 -4 -11 -1
-13 10 -9 11 4 14 2 11 -8 -4 -10 -19 -13 -54 -11 -27 2 -51 7 -54 12 -3 5
-14 8 -25 7 -12 -1 -21 5 -23 18 -2 11 -9 23 -15 27 -7 4 -7 11 -1 20 5 8 2 7
-6 -2 -9 -9 -21 -15 -28 -12 -6 2 -12 -3 -12 -12 0 -9 -5 -16 -11 -16 -7 0 -9
10 -5 25 5 19 3 23 -9 19 -8 -4 -15 -2 -15 4 0 6 6 13 13 15 6 3 -3 6 -22 6
-33 1 -33 1 -26 -36 4 -21 16 -58 27 -83 15 -31 20 -63 19 -105 -1 -33 -2 -79
-2 -102 -2 -53 40 -110 77 -105 15 2 26 -3 30 -13 5 -12 14 -15 30 -11 15 4
24 2 24 -5 0 -6 7 -9 15 -5 9 3 15 0 15 -9 0 -8 5 -15 11 -15 5 0 8 -3 6 -7
-3 -5 15 -8 39 -9 24 0 44 2 44 6 0 3 19 14 41 24 31 14 38 21 28 28 -11 8
-11 9 2 5 9 -3 21 -1 27 5 8 8 16 7 28 -3 16 -13 17 -12 12 8 -4 15 -2 20 8
16 8 -3 11 -16 9 -34 -2 -16 1 -29 6 -29 5 0 9 -7 9 -15 0 -9 -6 -12 -17 -9
-15 5 -16 4 -3 -5 23 -17 30 -13 30 16 0 26 1 26 15 7 10 -13 14 -14 15 -5 0
10 3 11 14 2 11 -9 15 -7 19 9 3 12 11 20 19 19 7 -1 20 -1 28 0 24 2 -10 21
-39 21 -15 0 -21 5 -18 14 3 7 -4 21 -16 31 -15 13 -17 20 -9 23 13 4 37 50
34 65 -1 4 7 7 18 7 13 0 18 -5 14 -15 -4 -8 -11 -15 -17 -15 -6 0 -8 -2 -5
-5 7 -7 68 25 68 35 0 5 -7 7 -15 4 -8 -4 -15 -2 -15 2 0 5 -26 23 -58 39 -31
17 -61 35 -65 40 -15 18 0 119 33 220 18 55 37 105 42 111 17 22 22 114 7 140
-11 21 -11 29 1 47 10 15 14 56 15 136 l0 115 -33 31 c-27 27 -71 125 -55 125
3 0 0 7 -7 15 -10 12 -9 20 4 40 20 31 21 61 1 69 -8 3 -15 12 -15 20 0 16
-53 52 -90 60 -17 4 -40 -3 -70 -21z m30 -624 c0 -6 -4 -7 -10 -4 -5 3 -10 11
-10 16 0 6 5 7 10 4 6 -3 10 -11 10 -16z m-212 -91 c-3 -7 -13 -15 -24 -17
-16 -3 -17 -1 -5 13 16 19 34 21 29 4z"/>
<path d="M2080 3673 c0 -4 5 -15 10 -23 8 -13 10 -13 10 2 0 9 -4 20 -10 23
-5 3 -10 3 -10 -2z"/>
<path d="M2325 3599 c-11 -17 1 -21 15 -4 8 9 8 15 2 15 -6 0 -14 -5 -17 -11z"/>
<path d="M2140 3590 c0 -5 5 -10 11 -10 5 0 7 5 4 10 -3 6 -8 10 -11 10 -2 0
-4 -4 -4 -10z"/>
<path d="M2151 3234 c0 -11 3 -14 6 -6 3 7 2 16 -1 19 -3 4 -6 -2 -5 -13z"/>
<path d="M3023 3090 c1 -11 5 -20 9 -20 11 0 10 28 -1 35 -6 3 -9 -4 -8 -15z"/>
<path d="M2570 3068 c0 -11 5 -16 10 -13 6 3 10 0 10 -7 0 -10 2 -10 9 1 5 8
7 19 5 26 -8 19 -34 13 -34 -7z"/>
<path d="M1935 2980 c-3 -5 1 -20 9 -32 16 -22 16 -22 16 10 0 31 -12 42 -25
22z"/>
<path d="M3450 2780 c0 -5 5 -10 10 -10 6 0 10 5 10 10 0 6 -4 10 -10 10 -5 0
-10 -4 -10 -10z"/>
<path d="M1724 2759 c-12 -12 -36 -21 -57 -22 -23 -1 -37 -7 -37 -15 0 -8 -5
-10 -12 -6 -7 5 -9 2 -6 -8 4 -9 0 -15 -8 -15 -8 0 -14 4 -14 9 0 4 -5 8 -11
8 -7 0 -9 -10 -5 -27 4 -16 3 -23 -1 -16 -6 8 -13 9 -23 2 -13 -8 -13 -11 3
-23 24 -19 21 -26 -12 -26 -30 0 -41 -14 -41 -52 0 -18 -2 -19 -16 -7 -15 12
-16 11 -10 -9 7 -22 -7 -31 -19 -12 -4 6 -11 8 -16 4 -5 -3 -7 -10 -4 -15 6
-8 -9 -12 -41 -12 -5 0 -10 -9 -10 -21 1 -14 -5 -21 -16 -20 -11 1 -18 -5 -18
-17 0 -10 5 -19 12 -19 6 0 8 -3 5 -7 -4 -3 -16 2 -27 12 -23 21 -27 4 -4 -19
9 -9 12 -21 7 -28 -4 -7 -6 -20 -5 -28 1 -8 -12 -23 -30 -34 -19 -11 -28 -21
-20 -23 6 -3 10 -9 7 -13 -3 -5 -12 -7 -21 -3 -12 4 -14 0 -8 -21 5 -21 1 -31
-22 -51 -15 -13 -31 -22 -36 -19 -4 3 -5 -3 -1 -13 6 -16 5 -16 -10 -4 -9 7
-17 10 -17 5 0 -5 -5 -2 -10 6 -13 20 -13 100 0 100 6 0 5 8 -2 20 -7 11 -19
20 -26 20 -7 0 -11 4 -8 9 3 5 -5 16 -19 25 -22 14 -25 14 -41 -2 -17 -16 -18
-16 -11 1 7 18 -17 25 -28 8 -3 -6 -27 -13 -53 -17 -37 -5 -43 -9 -27 -15 18
-7 18 -8 2 -8 -10 -1 -16 -5 -12 -10 3 -5 1 -12 -5 -16 -7 -4 -6 -13 1 -27 10
-18 9 -20 -5 -15 -10 4 -16 1 -16 -8 0 -8 -4 -15 -9 -15 -5 0 -7 -8 -4 -18 5
-22 -22 -49 -32 -32 -5 8 -11 6 -19 -6 -11 -14 -16 -15 -36 -4 -21 11 -25 9
-48 -19 -18 -23 -31 -31 -49 -29 -20 2 -39 -13 -99 -77 -69 -74 -98 -117 -56
-84 33 27 62 39 89 38 24 -2 25 -2 6 -6 -31 -6 -29 -23 2 -23 17 0 25 -5 25
-17 0 -16 -2 -16 -10 -3 -9 13 -12 13 -24 -2 -7 -10 -20 -18 -28 -18 -9 0 -22
-7 -29 -16 -12 -15 -11 -16 9 -10 26 9 54 -18 47 -44 -2 -8 7 -37 20 -65 l25
-50 1 35 c0 19 3 28 6 20 3 -8 11 -18 16 -22 8 -4 7 -15 -1 -34 -12 -25 -10
-37 6 -40 35 -7 52 -19 52 -36 0 -10 4 -16 10 -13 5 3 10 1 10 -4 0 -6 -5 -11
-11 -11 -7 0 -10 -12 -7 -30 5 -31 -8 -41 -18 -15 -8 19 -44 20 -44 0 0 -10
14 -17 40 -21 36 -6 40 -9 40 -37 0 -21 -9 -39 -32 -59 -17 -15 -26 -28 -20
-28 7 0 12 -4 12 -10 0 -6 -9 -5 -24 1 -29 13 -44 72 -25 95 9 11 6 14 -17 15
-17 1 -22 3 -11 6 22 6 22 23 0 24 -17 0 -17 1 0 7 16 7 16 9 -3 25 -25 21
-44 22 -36 2 3 -8 1 -15 -4 -15 -6 0 -10 5 -10 11 0 20 21 49 35 49 8 0 15 8
15 19 0 16 -7 18 -50 17 -63 -2 -75 5 -66 38 5 20 3 24 -9 20 -9 -4 -25 2 -35
11 -11 10 -20 16 -21 14 -3 -16 -29 -122 -39 -159 -7 -25 -12 -108 -12 -185
-1 -148 5 -173 51 -222 12 -12 21 -26 21 -30 0 -16 38 -40 73 -47 32 -6 63
-19 139 -57 24 -12 48 -11 48 1 0 6 13 10 29 10 25 0 28 3 24 28 -3 15 -11 41
-19 58 -8 18 -19 55 -26 83 -16 69 -1 85 39 41 15 -18 40 -38 56 -46 15 -8 58
-42 95 -76 87 -79 207 -158 327 -213 104 -49 117 -67 61 -90 -44 -19 -67 -56
-68 -114 -2 -75 -3 -75 146 -65 214 13 426 3 586 -28 58 -11 128 -21 155 -23
58 -3 176 -37 326 -94 188 -71 436 -108 565 -84 106 19 173 83 182 172 5 52
-10 82 -36 73 -6 -2 -12 0 -12 5 0 12 -45 14 -74 3 -20 -7 -29 -4 -55 20 -17
17 -28 36 -25 44 7 18 44 32 97 35 9 1 17 8 17 16 0 9 10 20 23 25 103 42 329
144 333 151 3 5 -2 9 -10 9 -8 0 -20 9 -26 20 -8 15 -6 21 10 30 26 14 40 5
40 -26 0 -24 1 -24 17 -9 9 9 39 28 67 41 50 25 118 69 167 109 58 48 179 221
179 257 0 9 4 19 9 22 17 11 26 81 28 216 1 74 2 176 3 225 2 72 -2 102 -20
148 -12 32 -28 61 -36 64 -8 3 -14 10 -14 16 0 26 -57 119 -89 144 -19 16 -68
56 -108 91 -70 59 -93 72 -93 54 0 -11 36 -49 50 -54 7 -2 7 -13 -1 -37 -7
-20 -14 -28 -19 -21 -8 13 -23 -24 -21 -52 1 -9 -3 -19 -9 -23 -5 -3 -10 -15
-10 -26 0 -10 -5 -19 -11 -19 -6 0 -9 -7 -5 -15 3 -9 -7 -28 -25 -46 -29 -30
-31 -30 -36 -10 -3 11 -9 18 -14 15 -8 -5 -14 17 -10 39 0 4 -8 7 -19 7 -11 0
-20 5 -20 10 0 6 -10 10 -23 10 -14 0 -24 6 -24 15 0 18 14 20 20 3 2 -7 7
-10 11 -7 4 4 -4 19 -17 33 -18 19 -27 23 -30 14 -3 -7 -3 1 0 18 3 18 0 35
-6 38 -6 4 -11 2 -11 -3 0 -6 -9 -2 -20 9 -12 12 -18 25 -15 30 9 14 -5 51
-16 44 -5 -3 -7 -10 -4 -15 4 -5 2 -9 -3 -9 -16 0 -24 33 -10 42 10 6 8 8 -4
8 -19 0 -25 25 -8 35 15 9 2 25 -14 19 -8 -3 -14 1 -13 8 0 7 -1 22 -2 33 -1
16 -3 17 -10 6 -8 -12 -12 -12 -25 2 -19 18 -21 31 -5 21 9 -5 10 1 5 20 -4
17 -2 26 5 26 9 0 9 4 0 14 -9 11 -8 15 5 20 15 6 14 9 -6 26 -12 11 -26 18
-29 16 -4 -3 -17 9 -30 25 -13 16 -27 26 -33 23 -5 -3 -15 0 -23 6 -22 18 -82
4 -90 -20 -4 -11 -14 -20 -23 -20 -12 0 -13 -3 -4 -12 18 -18 15 -31 -6 -26
-15 4 -18 1 -15 -16 3 -12 -2 -28 -11 -35 -8 -7 -12 -19 -9 -27 3 -8 1 -14 -4
-14 -6 0 -16 -18 -23 -40 -7 -22 -17 -40 -22 -40 -4 0 -8 -9 -8 -20 0 -11 -4
-20 -10 -20 -5 0 -10 8 -10 17 0 15 -2 14 -19 -3 -10 -10 -16 -24 -14 -30 2
-5 -12 -16 -32 -24 -19 -7 -35 -20 -35 -27 0 -7 -6 -10 -15 -7 -8 4 -15 2 -15
-2 0 -5 -23 -10 -50 -11 -42 -2 -50 0 -50 15 -1 15 -2 15 -15 -2 -15 -19 -15
-19 -16 5 -1 17 -3 19 -6 7 -7 -28 -33 -21 -44 12 -6 16 -14 29 -17 28 -12 -4
-53 23 -48 30 2 4 -7 15 -20 25 -23 17 -24 17 -25 0 0 -10 -2 -28 -3 -40 -1
-11 6 -27 16 -34 10 -7 18 -21 18 -30 0 -9 7 -22 15 -29 9 -7 13 -15 11 -18
-3 -2 1 -11 9 -19 18 -17 20 -74 3 -91 -8 -8 -8 -15 1 -26 10 -12 9 -14 -8 -9
-12 3 -21 12 -21 19 0 8 -7 14 -15 14 -25 0 -17 -13 25 -42 36 -25 38 -30 33
-63 -4 -24 -2 -35 6 -35 8 0 10 8 6 19 -7 22 15 34 36 19 11 -8 10 -9 -3 -4
-20 6 -25 -10 -5 -17 8 -3 6 -10 -8 -21 -22 -17 -45 -21 -45 -7 0 5 -7 12 -16
15 -8 3 -12 2 -9 -4 3 -6 -3 -10 -15 -10 -12 0 -18 5 -15 10 3 6 -1 10 -9 10
-9 0 -16 -6 -16 -14 0 -8 -13 -20 -29 -27 -19 -8 -27 -18 -24 -28 4 -13 3 -13
-5 -2 -5 7 -15 10 -21 7 -6 -4 -11 0 -11 8 0 9 -6 16 -14 16 -8 0 -16 7 -20
15 -3 9 -18 15 -36 15 -19 0 -30 5 -30 14 0 10 -7 12 -22 8 -16 -4 -19 -2 -13
8 6 10 3 12 -11 8 -14 -3 -23 2 -30 17 -12 26 5 48 27 34 8 -5 21 -9 29 -9 12
1 12 3 -2 13 -21 17 -8 40 17 31 14 -6 17 -4 12 9 -4 11 -1 17 7 17 8 0 16 9
19 20 3 12 0 20 -8 20 -13 0 -25 30 -25 66 0 28 -30 53 -66 56 -16 1 -32 7
-36 13 -5 6 -11 5 -17 -4 -5 -7 -14 -10 -20 -7 -6 4 -11 2 -11 -3 0 -14 -47
-14 -56 0 -3 6 -17 9 -31 6 -18 -3 -23 -1 -19 9 3 8 1 14 -5 14 -6 0 -7 5 -4
10 6 10 0 12 -49 12 -27 1 -28 2 -12 14 24 17 14 66 -12 62 -11 -2 -16 3 -14
15 2 12 -4 17 -18 17 -12 0 -18 4 -15 10 4 6 1 17 -5 25 -10 12 -9 15 4 15 14
0 15 3 5 22 -12 22 -12 22 -21 3 -6 -16 -7 -14 -3 7 4 23 1 29 -20 34 -14 3
-25 10 -25 15 0 5 -6 9 -12 9 -16 0 -78 63 -78 79 0 18 -24 13 -46 -10z m-314
-303 c0 -2 -7 -9 -15 -16 -13 -11 -14 -10 -9 4 5 14 24 23 24 12z m253 -61
c16 -25 61 -84 101 -132 75 -92 96 -136 116 -243 14 -74 22 -294 13 -357 -5
-40 -8 -42 -56 -58 -28 -9 -57 -24 -63 -33 -12 -15 -20 -13 -91 25 -43 23
-104 49 -135 58 -54 15 -110 48 -250 148 -59 42 -164 97 -186 97 -5 0 -15 6
-21 14 -14 16 89 117 295 288 98 82 145 129 175 175 24 36 48 63 58 63 9 -1
29 -21 44 -45z m1614 -17 c22 -35 62 -88 89 -118 28 -30 72 -84 99 -120 27
-36 52 -67 55 -70 79 -73 112 -177 58 -186 -45 -7 -100 -28 -141 -54 -26 -16
-50 -30 -53 -30 -3 0 -33 -14 -68 -30 -57 -28 -91 -57 -198 -171 -36 -39 -84
-40 -98 -3 -16 41 -12 333 6 450 16 102 18 106 70 172 47 58 101 153 118 205
9 29 22 20 63 -45z m-1017 -162 c0 -3 -4 -8 -10 -11 -5 -3 -10 -1 -10 4 0 6 5
11 10 11 6 0 10 -2 10 -4z m-1020 -20 c0 -3 -4 -8 -10 -11 -5 -3 -10 -1 -10 4
0 6 5 11 10 11 6 0 10 -2 10 -4z m-325 -16 c3 -5 1 -10 -4 -10 -6 0 -11 5 -11
10 0 6 2 10 4 10 3 0 8 -4 11 -10z m1397 -222 c-7 -7 -12 -8 -12 -2 0 6 3 14
7 17 3 4 9 5 12 2 2 -3 -1 -11 -7 -17z m86 15 c-10 -2 -18 -11 -18 -19 0 -8
-9 -14 -20 -14 -11 0 -20 4 -20 10 0 5 7 7 15 4 9 -4 15 0 15 10 0 10 8 16 23
15 16 -1 18 -2 5 -6z m29 -25 c-3 -8 -6 -5 -6 6 -1 11 2 17 5 13 3 -3 4 -12 1
-19z m-1712 -6 c3 -8 2 -18 -3 -21 -5 -3 -11 -14 -15 -23 -9 -26 -27 -22 -26
5 0 21 1 21 9 2 10 -23 13 -5 4 19 -5 13 -9 14 -20 5 -15 -12 -17 -9 -8 14 7
19 51 19 59 -1z m1795 8 c0 -5 -5 -10 -11 -10 -5 0 -7 5 -4 10 3 6 8 10 11 10
2 0 4 -4 4 -10z m-250 -10 c0 -5 -2 -10 -4 -10 -3 0 -8 5 -11 10 -3 6 -1 10 4
10 6 0 11 -4 11 -10z m1540 -71 c0 -23 -5 -29 -22 -30 -17 -1 -19 -2 -6 -6 14
-3 16 -9 8 -22 -5 -10 -6 -21 -3 -25 3 -3 -1 -6 -10 -6 -9 0 -18 8 -19 18 0 9
-2 22 -3 27 -2 6 -3 15 -4 21 0 6 -12 17 -26 24 -13 7 -22 17 -18 23 3 5 9 3
14 -4 6 -10 9 -11 9 -1 0 6 5 12 11 12 5 0 7 -4 4 -10 -10 -16 15 -12 32 5 20
20 33 10 33 -26z m-120 -82 c0 15 53 10 58 -6 2 -6 -4 -11 -12 -11 -15 0 -15
-2 0 -25 9 -14 12 -25 6 -25 -5 0 -12 -11 -14 -25 -3 -14 -1 -25 3 -25 5 0 9
-8 9 -17 0 -14 -2 -15 -9 -4 -6 9 -11 10 -15 2 -4 -6 -4 -15 -1 -21 3 -5 1
-10 -4 -10 -6 0 -11 -7 -11 -15 0 -8 -7 -15 -15 -15 -10 0 -15 -10 -15 -30 0
-16 -4 -31 -10 -31 -19 -3 -25 -5 -48 -17 -25 -14 -46 -7 -35 11 11 18 12 36
3 42 -5 3 -7 12 -3 20 3 8 1 15 -4 15 -17 0 -23 -13 -12 -27 7 -8 8 -13 1 -13
-5 0 -13 -11 -16 -24 -7 -27 -58 -86 -75 -86 -6 0 -11 -4 -11 -9 0 -12 -88
-46 -97 -37 -8 8 35 54 59 62 10 3 18 11 18 18 0 21 30 42 39 28 5 -8 13 -8
31 1 27 14 42 44 17 34 -9 -3 -18 1 -21 10 -5 12 -1 14 20 9 17 -5 23 -3 19 4
-3 5 -12 10 -19 10 -18 0 -14 26 13 93 15 37 30 58 45 63 11 3 30 16 41 29 25
27 48 36 57 21 6 -8 8 -8 8 1z m-2817 -244 c-7 -2 -13 -11 -13 -19 0 -10 5
-12 13 -8 8 5 8 3 -2 -9 -16 -20 -31 -14 -31 13 0 17 13 28 35 28 6 0 4 -2 -2
-5z m1473 -40 c-23 -134 -44 -196 -31 -93 6 52 25 120 33 120 2 0 1 -12 -2
-27z m1244 -22 c0 -6 -5 -13 -11 -17 -8 -4 -7 -9 2 -15 11 -7 10 -9 -4 -9 -10
0 -16 -4 -12 -9 3 -5 1 -12 -5 -16 -13 -8 -13 18 2 50 11 25 28 34 28 16z
m-1583 -7 c-3 -3 -12 -4 -19 -1 -8 3 -5 6 6 6 11 1 17 -2 13 -5z m-1137 -24
c0 -5 -5 -10 -11 -10 -5 0 -7 5 -4 10 3 6 8 10 11 10 2 0 4 -4 4 -10z m1057 3
c-9 -2 -15 -9 -12 -14 4 -5 1 -9 -4 -9 -6 0 -11 7 -11 15 0 9 9 15 23 14 17
-1 18 -2 4 -6z m79 -13 c0 -12 -4 -16 -9 -11 -5 5 -6 14 -3 20 10 15 12 14 12
-9z m904 -17 c0 -7 -4 -13 -10 -13 -5 0 -7 7 -4 15 4 8 1 15 -6 15 -6 0 -8 5
-4 11 7 12 24 -7 24 -28z m-2130 3 c0 -3 -4 -8 -10 -11 -5 -3 -10 -1 -10 4 0
6 5 11 10 11 6 0 10 -2 10 -4z m1920 -17 c0 -6 7 -9 15 -5 8 3 15 1 15 -4 0
-10 -14 -14 -38 -11 -7 1 -12 -2 -11 -6 4 -16 -13 -43 -27 -43 -8 0 -14 -4
-14 -10 0 -5 -5 -10 -11 -10 -7 0 -9 10 -5 25 6 24 -9 36 -16 13 -5 -13 -38
-4 -38 11 0 5 9 11 21 14 12 3 18 10 15 16 -6 10 18 17 67 20 15 0 27 -4 27
-10z m-1796 -25 c3 -7 12 -11 20 -8 15 6 18 5 75 -44 33 -27 33 -29 13 -34
-16 -5 -22 -2 -22 10 0 12 -3 13 -8 5 -6 -9 -12 -7 -22 7 -8 11 -19 20 -25 20
-10 0 -45 34 -59 57 -5 9 -2 11 8 7 8 -3 17 -12 20 -20z m2666 10 c0 -12 -21
-44 -29 -44 -5 0 -6 11 -3 25 2 14 11 25 18 25 8 0 14 -3 14 -6z m-710 -19
c-14 -17 -30 -20 -30 -4 0 5 5 7 10 4 6 -3 10 -1 10 4 0 6 5 11 11 11 8 0 8
-5 -1 -15z m-155 -25 c-3 -5 -10 -10 -16 -10 -5 0 -9 5 -9 10 0 6 7 10 16 10
8 0 12 -4 9 -10z m-161 -12 c-5 -8 -2 -9 9 -5 31 12 17 -9 -28 -43 -20 -15
-20 -14 -1 8 13 15 15 22 6 22 -10 0 -10 3 0 15 15 18 24 20 14 3z m996 -13
c-7 -8 -16 -12 -21 -9 -5 3 -9 -2 -9 -10 0 -8 -4 -17 -9 -20 -4 -3 -6 5 -3 19
4 21 15 30 46 34 5 0 3 -6 -4 -14z m-47 -164 c-4 -15 -12 -21 -27 -19 -27 4
-34 38 -11 54 23 17 46 -4 38 -35z m-438 -351 c-3 -5 -12 -10 -18 -10 -7 0 -6
4 3 10 19 12 23 12 15 0z m-33 -32 c-4 -4 -23 -3 -42 1 -35 8 -30 15 15 23 21
4 39 -12 27 -24z m-82 2 c0 -5 -4 -10 -10 -10 -5 0 -10 5 -10 10 0 6 5 10 10
10 6 0 10 -4 10 -10z"/>
<path d="M3575 1710 c-3 -4 1 -11 7 -13 10 -4 10 -8 -1 -15 -8 -6 -10 -15 -6
-22 6 -9 12 -6 21 11 7 13 13 27 14 30 0 11 -29 19 -35 9z"/>
<path d="M3551 1664 c0 -11 3 -14 6 -6 3 7 2 16 -1 19 -3 4 -6 -2 -5 -13z"/>
<path d="M3455 2729 c8 -15 15 -35 15 -44 0 -8 7 -15 15 -15 30 0 9 74 -24 83
-19 5 -20 4 -6 -24z"/>
<path d="M1512 2728 c2 -20 5 -24 14 -17 9 8 11 4 7 -13 -6 -23 -6 -23 15 -4
27 23 28 36 4 36 -10 0 -23 5 -30 12 -9 9 -12 6 -10 -14z"/>
<path d="M1440 2680 c0 -5 7 -7 15 -4 8 4 15 8 15 10 0 2 -7 4 -15 4 -8 0 -15
-4 -15 -10z"/>
<path d="M3440 2629 c0 -5 5 -7 10 -4 6 3 10 8 10 11 0 2 -4 4 -10 4 -5 0 -10
-5 -10 -11z"/>
<path d="M3513 2605 c-2 -20 2 -35 8 -35 5 0 7 -5 4 -10 -4 -6 -15 -8 -26 -5
-11 4 -19 2 -19 -4 0 -6 7 -11 16 -11 13 0 14 -3 5 -14 -16 -19 4 -31 46 -27
28 2 32 0 26 -15 -5 -14 -2 -16 15 -12 16 4 22 1 24 -15 4 -29 24 -32 32 -5 4
18 -2 30 -29 54 -18 18 -36 30 -39 28 -3 -2 -4 -1 -1 3 3 3 -6 21 -20 39 -14
18 -25 40 -25 48 0 32 -15 15 -17 -19z"/>
<path d="M3478 2583 c7 -3 16 -2 19 1 4 3 -2 6 -13 5 -11 0 -14 -3 -6 -6z"/>
<path d="M2414 2535 c-3 -8 -3 -18 0 -23 3 -6 -1 -15 -9 -22 -14 -12 -21 -50
-10 -50 3 0 17 7 31 16 19 13 22 20 13 30 -6 7 -8 18 -4 24 3 5 1 10 -4 10
-21 0 -11 19 12 23 l22 4 -23 2 c-12 0 -25 -6 -28 -14z"/>
<path d="M3385 2530 c3 -5 8 -10 11 -10 2 0 4 5 4 10 0 6 -5 10 -11 10 -5 0
-7 -4 -4 -10z"/>
<path d="M2945 2510 c-3 -5 -1 -10 4 -10 6 0 11 5 11 10 0 6 -2 10 -4 10 -3 0
-8 -4 -11 -10z"/>
<path d="M3530 2480 c0 -5 5 -10 10 -10 6 0 10 5 10 10 0 6 -4 10 -10 10 -5 0
-10 -4 -10 -10z"/>
<path d="M3370 2460 c0 -5 5 -10 10 -10 6 0 10 5 10 10 0 6 -4 10 -10 10 -5 0
-10 -4 -10 -10z"/>
<path d="M3587 2454 c-8 -9 11 -44 24 -44 6 0 3 7 -5 16 -9 8 -14 20 -11 25 7
10 1 12 -8 3z"/>
<path d="M3525 2440 c4 -6 11 -8 16 -5 14 9 11 15 -7 15 -8 0 -12 -5 -9 -10z"/>
<path d="M2360 2430 c0 -5 5 -10 10 -10 6 0 10 5 10 10 0 6 -4 10 -10 10 -5 0
-10 -4 -10 -10z"/>
<path d="M2320 2390 c0 -5 7 -10 16 -10 14 0 14 -3 4 -15 -16 -19 0 -19 26 0
16 13 17 16 4 25 -19 13 -50 13 -50 0z"/>
<path d="M2375 2270 c-3 -5 -1 -11 5 -15 5 -3 10 -3 10 2 0 4 5 1 10 -7 8 -13
10 -13 10 1 0 19 -26 33 -35 19z"/>
<path d="M2460 2260 c0 -5 -3 -15 -6 -23 -3 -10 2 -17 13 -20 16 -4 16 -5 1
-6 -10 0 -18 -5 -18 -11 0 -5 7 -7 15 -4 12 5 14 2 8 -12 -6 -16 -4 -17 9 -6
8 7 24 10 34 7 15 -5 15 -3 -2 5 -15 9 -19 19 -16 39 3 22 -1 29 -17 34 -12 3
-21 1 -21 -3z"/>
<path d="M2530 2240 c0 -5 5 -10 10 -10 6 0 10 5 10 10 0 6 -4 10 -10 10 -5 0
-10 -4 -10 -10z"/>
<path d="M2388 2183 c7 -3 16 -2 19 1 4 3 -2 6 -13 5 -11 0 -14 -3 -6 -6z"/>
<path d="M2528 2103 c7 -3 16 -2 19 1 4 3 -2 6 -13 5 -11 0 -14 -3 -6 -6z"/>
<path d="M535 1950 c-3 -5 -1 -10 4 -10 6 0 11 5 11 10 0 6 -2 10 -4 10 -3 0
-8 -4 -11 -10z"/>
<path d="M495 1890 c-3 -6 1 -7 9 -4 18 7 21 14 7 14 -6 0 -13 -4 -16 -10z"/>
<path d="M605 1890 c-3 -5 -2 -10 4 -10 5 0 13 5 16 10 3 6 2 10 -4 10 -5 0
-13 -4 -16 -10z"/>
<path d="M530 1850 c0 -5 7 -10 16 -10 8 0 12 5 9 10 -3 6 -10 10 -16 10 -5 0
-9 -4 -9 -10z"/>
<path d="M640 1806 c0 -2 7 -7 16 -10 8 -3 12 -2 9 4 -6 10 -25 14 -25 6z"/>
<path d="M580 1741 c0 -6 5 -13 10 -16 6 -3 10 1 10 9 0 9 -4 16 -10 16 -5 0
-10 -4 -10 -9z"/>
<path d="M765 1570 c3 -5 1 -10 -5 -10 -6 0 -10 -8 -8 -17 5 -29 33 -21 34 10
1 17 -4 27 -13 27 -8 0 -11 -4 -8 -10z"/>
<path d="M3170 800 c0 -5 5 -10 11 -10 5 0 7 5 4 10 -3 6 -8 10 -11 10 -2 0
-4 -4 -4 -10z"/>
<path d="M3192 785 c-11 -13 -9 -15 12 -15 18 0 24 4 20 15 -8 19 -15 18 -32
0z"/>
</g>
</svg>
